<svg width="12" height="12" viewBox="0 0 12 12" fill="none" xmlns="http://www.w3.org/2000/svg">
<g clip-path="url(#clip0_8_36)">
<path d="M6 6C6.09946 6 6.19484 6.03951 6.26516 6.10984C6.33549 6.18016 6.375 6.27554 6.375 6.375V8.25C6.375 8.34946 6.41451 8.44484 6.48483 8.51517C6.55516 8.58549 6.65054 8.625 6.75 8.625" stroke="#6D6D6D" stroke-linecap="round" stroke-linejoin="round"/>
<path d="M5.8125 4.3125C6.01961 4.3125 6.1875 4.14461 6.1875 3.9375C6.1875 3.73039 6.01961 3.5625 5.8125 3.5625C5.60539 3.5625 5.4375 3.73039 5.4375 3.9375C5.4375 4.14461 5.60539 4.3125 5.8125 4.3125Z" fill="#6D6D6D"/>
<path d="M6 10.5C8.48528 10.5 10.5 8.48528 10.5 6C10.5 3.51472 8.48528 1.5 6 1.5C3.51472 1.5 1.5 3.51472 1.5 6C1.5 8.48528 3.51472 10.5 6 10.5Z" stroke="#6D6D6D" stroke-linecap="round" stroke-linejoin="round"/>
</g>
<defs>
<clipPath id="clip0_8_36">
<rect width="12" height="12" fill="white"/>
</clipPath>
</defs>
</svg>
